<svg xmlns="http://www.w3.org/2000/svg" viewBox="0 0 512 512">
  <defs>
    <linearGradient id="sGrad" x1="0.3" y1="0" x2="0.7" y2="1">
      <stop offset="0%" stop-color="#36d9b0"/>
      <stop offset="100%" stop-color="#22c55e"/>
    </linearGradient>
    <linearGradient id="checkGrad" x1="0" y1="0" x2="1" y2="1">
      <stop offset="0%" stop-color="#34d399"/>
      <stop offset="100%" stop-color="#22c55e"/>
    </linearGradient>
  </defs>

  <!-- Circle border (subtle dark stroke) -->
  <circle cx="256" cy="256" r="248" fill="#0b1a2e" stroke="#162d45" stroke-width="8"/>

  <!-- "P" letter - white, large bold -->
  <path d="
    M 108,370 L 108,130
    L 220,130
    C 248,130 270,136 286,150
    C 302,164 310,184 310,208
    C 310,232 302,252 286,266
    C 270,280 248,286 220,286
    L 158,286 L 158,370 Z
    M 158,176 L 158,242 L 214,242
    C 232,242 246,237 254,228
    C 262,219 266,208 266,208
    C 266,208 262,196 254,188
    C 246,178 232,176 214,176 Z
  " fill="#ffffff" fill-rule="evenodd"/>

  <!-- "S" letter - teal gradient, positioned to overlap -->
  <path d="
    M 352,192 C 344,178 328,168 306,164
    C 284,160 264,168 256,180
    C 248,192 252,208 268,220
    C 276,226 290,232 306,238
    C 322,244 336,252 344,264
    C 352,276 352,292 344,308
    C 336,324 320,336 298,340
    C 276,344 256,340 240,328
    L 260,298
    C 268,308 282,316 298,314
    C 314,312 326,302 326,288
    C 326,274 314,264 296,256
    C 278,248 262,240 252,228
    C 242,216 240,200 248,184
    C 256,168 274,156 298,152
    C 322,148 342,156 358,170
    Z
  " fill="url(#sGrad)"/>

  <!-- Checkmark - bright green, overlapping the P-S junction -->
  <path d="M 200,296 L 248,352 L 340,216"
    fill="none" stroke="url(#checkGrad)" stroke-width="30" stroke-linecap="round" stroke-linejoin="round"/>
</svg>