<svg xmlns="http://www.w3.org/2000/svg" width="673" height="371" viewBox="0 0 673 371">
<g>
<path d="M 317.00 215.38 C312.11,214.43 302.45,210.96 299.23,209.00 L 295.97 207.01 L 299.00 201.00 C300.66,197.70 302.23,195.00 302.48,195.00 C302.73,195.00 304.42,195.82 306.22,196.83 C312.22,200.18 319.27,202.00 326.24,202.00 C335.41,202.00 339.89,199.50 339.97,194.32 C340.02,190.90 335.80,188.43 325.77,186.01 C308.55,181.85 304.36,179.66 299.88,172.50 C296.02,166.32 298.14,154.84 304.15,149.36 C310.63,143.46 323.04,140.60 335.50,142.12 C343.37,143.08 353.00,146.58 353.00,148.48 C353.00,149.17 352.02,152.08 350.83,154.95 C349.81,157.40 349.28,158.81 348.26,159.36 C346.86,160.13 344.55,159.22 338.77,157.10 C329.71,153.77 320.84,154.43 316.51,158.76 C310.69,164.59 315.22,168.75 331.50,172.52 C344.74,175.59 351.54,179.28 354.50,185.00 C355.33,186.60 356.00,190.42 356.00,193.49 C356.00,202.89 351.23,209.50 341.51,213.56 C337.64,215.18 321.97,216.34 317.00,215.38 ZM 489.00 215.11 C479.56,212.99 472.03,207.33 468.00,199.33 C465.02,193.43 464.65,181.77 467.24,175.81 C469.69,170.17 476.44,163.49 482.15,161.03 C488.33,158.37 498.32,157.91 505.50,159.96 C515.68,162.87 524.00,174.96 524.00,186.84 C524.00,188.30 524.23,189.28 523.87,189.93 C523.02,191.47 518.89,191.19 500.75,191.01 C482.67,190.84 482.00,190.90 482.00,192.81 C482.00,195.91 487.19,200.71 491.93,201.98 C497.08,203.37 502.99,202.53 507.72,199.74 L 511.17 197.70 L 515.69 202.22 L 520.20 206.73 L 517.96 208.82 C512.22,214.17 498.28,217.20 489.00,215.11 ZM 377.50 215.07 C361.43,211.21 358.07,191.63 372.26,184.56 C376.81,182.29 378.61,182.00 388.14,182.00 C394.05,182.00 399.13,181.60 399.43,181.11 C399.73,180.63 399.50,178.86 398.92,177.20 C396.68,170.77 384.63,169.08 375.22,173.89 L 371.08 176.00 L 368.54 171.66 C367.14,169.28 366.00,166.63 366.00,165.79 C366.00,161.96 383.89,157.52 394.46,158.71 C404.05,159.80 412.43,165.59 414.83,172.79 C415.68,175.34 416.38,198.87 416.04,213.25 C416.01,214.75 414.98,215.00 409.00,215.00 C404.07,215.00 402.00,214.63 401.98,213.75 C401.98,213.06 401.58,211.88 401.10,211.13 C400.40,210.02 399.68,210.18 397.28,211.95 C392.47,215.50 384.51,216.76 377.50,215.07 ZM 427.45 173.00 L 422.90 173.00 L 423.50 161.50 L 427.75 161.19 C431.62,160.91 432.00,160.64 432.01,158.19 C432.04,143.90 445.47,134.90 460.38,139.18 C462.65,139.83 464.65,140.47 464.84,140.61 C465.03,140.74 464.47,143.33 463.59,146.35 L 461.99 151.85 L 456.64 151.30 C451.83,150.81 451.12,150.99 449.64,153.10 C448.74,154.39 448.00,156.69 448.00,158.22 C448.00,160.99 448.01,161.00 455.00,161.00 L 462.00 161.00 L 462.00 173.00 L 457.75 173.10 C455.41,173.15 452.38,173.27 451.00,173.35 L 448.50 173.50 L 447.96 215.00 L 432.00 215.00 L 432.00 173.00 L 427.45 173.00 ZM 540.50 159.00 C547.69,159.00 548.00,159.10 548.00,161.33 C548.00,164.95 548.80,165.04 553.83,161.97 C556.69,160.22 560.25,159.00 563.00,158.81 L 567.50 158.50 L 568.08 172.76 L 562.53 173.45 C555.82,174.29 551.50,177.52 550.03,182.81 C549.47,184.84 549.01,192.91 549.01,200.75 L 549.00 215.00 L 533.00 215.00 L 533.00 159.00 L 540.50 159.00 ZM 508.00 180.07 C508.00,179.01 506.43,176.48 504.52,174.45 C501.08,170.80 500.98,170.77 494.39,171.19 C488.42,171.57 487.44,171.94 484.87,174.82 C483.29,176.59 482.00,178.92 482.00,180.02 C482.00,181.89 482.70,182.00 495.00,182.00 C507.17,182.00 508.00,181.88 508.00,180.07 ZM 393.22 199.75 C396.22,195.76 401.00,189.96 403.84,186.86 C406.68,183.76 409.00,180.95 409.00,180.61 C409.00,177.94 397.71,185.98 390.66,193.67 L 387.19 197.46 L 384.41 194.69 C381.38,191.65 377.50,191.38 377.50,194.21 C377.50,195.59 386.39,207.00 387.46,207.00 C387.62,207.00 390.22,203.74 393.22,199.75 Z" fill="rgba(55,212,162,1)"/>
<path d="M 645.00 353.57 C645.00,351.56 638.60,345.00 636.63,345.00 C634.01,345.00 634.74,343.59 638.40,341.63 C640.27,340.62 642.62,338.27 643.63,336.40 C644.63,334.53 645.69,333.00 645.98,333.01 C646.26,333.01 647.50,334.77 648.73,336.91 C649.95,339.06 652.31,341.41 653.98,342.15 C657.26,343.60 657.96,345.00 655.40,345.00 C653.32,345.00 647.00,351.32 647.00,353.40 C647.00,354.28 646.55,355.00 646.00,355.00 C645.45,355.00 645.00,354.36 645.00,353.57 Z" fill="rgba(92,124,124,1)"/>
<path d="M 238.10 234.42 C235.68,233.66 232.92,232.34 231.97,231.47 C230.34,230.00 230.41,229.60 233.15,224.53 C236.04,219.20 236.09,219.16 238.78,220.57 C244.26,223.43 251.12,221.54 252.92,216.68 C253.68,214.63 253.20,213.15 247.81,201.00 C246.72,198.52 245.42,195.60 244.93,194.50 C233.93,169.68 230.00,160.56 230.00,159.86 C230.00,159.38 233.63,159.00 238.06,159.00 L 246.11 159.00 L 247.95 163.25 C248.96,165.59 252.38,173.71 255.55,181.30 C258.72,188.88 261.67,194.73 262.10,194.30 C262.54,193.86 264.76,189.00 267.04,183.50 C269.32,178.00 272.53,170.24 274.18,166.25 L 277.19 159.00 L 284.59 159.00 C288.67,159.00 292.00,159.37 292.00,159.83 C292.00,160.92 268.66,216.77 265.91,222.25 C262.78,228.50 259.29,231.75 253.28,234.00 C247.16,236.29 244.30,236.37 238.10,234.42 ZM 187.80 215.05 C178.40,213.22 172.45,205.76 173.27,196.81 C174.22,186.34 180.05,182.78 197.50,182.02 L 209.50 181.50 L 209.17 179.00 C208.18,171.43 196.93,168.60 186.61,173.32 C183.54,174.72 180.85,175.56 180.63,175.19 C180.40,174.81 179.02,172.35 177.56,169.72 L 174.90 164.94 L 180.46 162.39 C195.22,155.63 213.80,157.74 221.17,167.01 C225.00,171.83 226.00,178.25 226.00,198.14 L 226.00 215.00 L 218.50 215.00 C211.17,215.00 211.00,214.94 211.00,212.50 C211.00,209.59 210.33,209.39 207.89,211.60 C203.79,215.31 196.01,216.65 187.80,215.05 ZM 203.25 203.37 C207.94,200.95 209.03,199.49 209.27,195.30 L 209.50 191.50 L 201.64 191.21 C195.90,190.99 193.16,191.32 191.47,192.43 C188.24,194.54 187.50,197.59 189.48,200.60 C192.37,205.01 197.92,206.13 203.25,203.37 ZM 105.00 179.00 L 105.00 143.00 L 124.60 143.00 C147.24,143.00 152.29,143.99 158.99,149.72 C164.73,154.63 166.95,159.80 166.98,168.28 C167.01,179.66 162.98,186.17 153.00,190.82 C148.22,193.05 145.83,193.44 134.75,193.79 L 122.00 194.20 L 122.00 204.60 L 122.00 215.00 L 113.50 215.00 L 105.00 215.00 L 105.00 179.00 ZM 145.69 177.83 C149.88,175.31 151.66,170.16 150.13,165.03 C148.10,158.25 143.17,156.00 130.35,156.00 L 122.00 156.00 L 122.00 167.93 C122.00,181.84 121.20,181.05 134.50,180.24 C139.90,179.91 143.54,179.13 145.69,177.83 Z" fill="rgba(251,251,250,1)"/>
</g>
</svg>